<?xml version="1.0" standalone="no"?>
<!DOCTYPE svg PUBLIC "-//W3C//DTD SVG 20010904//EN"
 "http://www.w3.org/TR/2001/REC-SVG-20010904/DTD/svg10.dtd">
<svg version="1.0" xmlns="http://www.w3.org/2000/svg"
 width="1024.000000pt" height="1192.000000pt" viewBox="0 0 1024.000000 1192.000000"
 preserveAspectRatio="xMidYMid meet">
<metadata>
Created by potrace 1.16, written by Peter Selinger 2001-2019
</metadata>
<g transform="translate(0.000000,1192.000000) scale(0.100000,-0.100000)"
fill="#000000" stroke="none">
<path d="M5069 11630 c-152 -24 -303 -127 -382 -263 -117 -199 -86 -471 72
-635 63 -66 143 -118 221 -143 36 -12 66 -23 68 -24 2 -2 -576 -1567 -582
-1572 -1 -2 -1090 848 -1108 866 -5 4 14 23 41 44 107 79 188 239 198 387 18
271 -186 520 -459 562 -288 43 -567 -165 -609 -454 -47 -323 209 -617 536
-618 l51 0 153 -1002 c85 -552 155 -1004 156 -1006 2 -2 61 30 131 70 337 190
683 309 1074 369 194 30 617 33 809 6 468 -66 882 -222 1271 -477 77 -51 144
-90 147 -86 4 4 78 468 164 1031 86 564 160 1042 164 1062 l6 38 92 1 c364 4
615 365 494 712 -31 89 -102 190 -170 242 -175 131 -383 154 -572 61 -263
-129 -375 -444 -251 -706 36 -76 90 -147 148 -192 l36 -29 -564 -442 c-461
-360 -566 -439 -572 -424 -3 9 -135 364 -293 787 l-286 770 62 20 c348 114
485 529 272 827 -47 66 -121 130 -192 166 -92 46 -225 67 -326 52z m235 -193
c188 -87 272 -317 181 -502 -34 -71 -100 -136 -173 -172 -51 -25 -67 -28 -162
-28 -100 0 -108 1 -168 34 -76 41 -135 104 -170 179 -22 48 -27 71 -27 147 0
81 3 97 32 157 49 103 142 180 250 208 63 16 176 5 237 -23z m-2092 -779 c79
-36 142 -98 181 -177 29 -60 32 -74 32 -161 0 -87 -3 -101 -32 -161 -39 -79
-102 -140 -181 -177 -49 -23 -70 -27 -152 -27 -82 0 -103 4 -152 27 -79 37
-142 98 -181 177 -29 60 -32 74 -32 161 0 82 4 103 26 151 47 99 128 171 232
205 67 22 190 13 259 -18z m4210 0 c79 -36 142 -98 181 -177 29 -60 32 -74 32
-161 0 -87 -3 -101 -32 -161 -39 -79 -102 -140 -181 -177 -49 -23 -70 -27
-152 -27 -82 0 -103 4 -152 27 -79 37 -142 98 -181 177 -29 60 -32 74 -32 161
0 82 4 103 26 151 47 99 128 171 232 205 67 22 190 13 259 -18z m-1961 -1210
c156 -422 287 -768 291 -768 4 0 278 212 608 471 331 259 603 469 605 467 5
-7 -250 -1638 -257 -1638 -4 0 -57 27 -118 61 -317 176 -690 301 -1075 361
-188 29 -614 36 -815 14 -352 -41 -692 -136 -993 -279 -70 -33 -129 -58 -131
-56 -5 6 -237 1531 -233 1535 1 2 273 -208 603 -466 329 -258 602 -470 605
-470 9 0 -25 -87 305 800 156 421 287 772 290 780 7 20 -15 78 315 -812z"/>
<path d="M1455 8366 c-185 -42 -352 -174 -435 -343 -33 -67 -70 -198 -70 -249
0 -31 -2 -33 -47 -40 -241 -35 -450 -215 -523 -449 -31 -98 -37 -232 -16 -329
56 -250 264 -455 509 -501 43 -8 101 -15 128 -15 110 0 277 52 360 111 l31 22
56 -55 c32 -31 251 -237 487 -458 237 -222 432 -407 433 -411 2 -5 -220 -9
-500 -9 l-503 0 -50 -24 c-59 -27 -114 -84 -151 -158 -35 -69 -45 -191 -20
-264 26 -78 82 -144 155 -181 l63 -33 523 0 523 0 12 -72 c37 -227 87 -416
161 -600 97 -243 264 -524 427 -718 98 -117 302 -316 400 -390 l72 -55 -33
-31 c-97 -96 -1224 -1137 -1234 -1141 -6 -2 -35 11 -65 31 -207 137 -494 134
-707 -8 -394 -263 -382 -849 24 -1095 68 -41 167 -78 234 -87 l51 -7 0 -41 c0
-60 31 -170 71 -251 24 -51 57 -94 119 -156 70 -72 100 -93 170 -127 114 -53
175 -67 300 -66 87 1 119 6 189 29 199 67 349 217 415 415 24 71 29 102 30
190 1 122 -12 185 -62 294 l-36 78 29 26 c16 14 112 102 213 196 101 94 187
172 191 174 4 1 15 -35 25 -80 42 -201 132 -417 245 -588 74 -114 250 -289
368 -368 279 -185 609 -272 1033 -272 534 0 947 140 1245 422 206 195 361 481
422 781 9 48 21 86 25 85 13 -6 408 -380 408 -388 0 -4 -16 -41 -35 -82 -147
-309 -21 -689 282 -846 106 -55 187 -75 303 -75 113 0 195 19 300 71 101 49
221 168 273 269 40 77 77 203 77 263 l0 37 56 7 c188 22 384 166 473 348 60
122 75 191 68 323 -8 163 -59 288 -164 405 -128 141 -286 210 -483 210 -136 0
-243 -32 -371 -111 l-36 -23 -632 594 -633 594 29 20 c129 94 350 308 473 460
97 120 217 306 291 451 140 274 216 515 274 868 l6 37 582 0 582 0 50 24 c65
30 138 111 164 182 28 73 28 175 0 248 -26 71 -99 152 -164 182 l-50 24 -542
0 c-312 0 -543 4 -543 9 0 11 947 891 959 891 5 0 34 -15 66 -34 95 -58 166
-78 295 -83 142 -6 219 10 334 69 165 86 291 250 332 434 21 99 15 252 -15
337 -83 235 -268 398 -501 441 l-65 12 -7 68 c-24 246 -201 463 -441 542 -71
24 -98 28 -202 28 -104 0 -131 -4 -202 -28 -101 -33 -214 -106 -283 -184 -60
-67 -133 -211 -151 -297 -16 -83 -14 -218 6 -295 16 -60 63 -169 86 -196 7 -9
-86 -101 -330 -328 -187 -174 -343 -316 -348 -316 -4 0 -31 36 -60 79 -359
546 -988 969 -1641 1105 -216 45 -285 51 -557 51 -349 0 -536 -29 -845 -131
-537 -178 -1040 -556 -1350 -1017 -25 -36 -47 -66 -50 -67 -4 0 -564 521 -644
599 l-28 29 41 83 c23 46 48 118 57 159 32 152 0 337 -82 472 -74 122 -213
231 -354 279 -83 27 -257 35 -345 15z m299 -216 c125 -47 236 -165 273 -289
24 -81 21 -192 -5 -271 -22 -64 -48 -104 -129 -197 l-41 -49 403 -378 c222
-208 413 -388 425 -401 l22 -23 -50 -103 c-64 -136 -115 -272 -159 -428 -19
-69 -37 -132 -39 -140 -3 -10 -20 1 -57 36 -29 27 -236 222 -462 433 -225 211
-440 412 -477 448 l-67 66 -70 -67 c-97 -94 -176 -130 -297 -135 -146 -7 -247
32 -345 131 -248 252 -104 686 249 748 45 8 88 8 154 0 51 -6 94 -9 96 -7 2 2
-4 51 -13 109 -20 125 -11 198 36 295 57 116 183 215 309 242 65 13 179 4 244
-20z m6901 -12 c143 -36 272 -166 310 -313 22 -85 19 -169 -11 -303 l-5 -23
114 7 c177 10 270 -20 379 -124 180 -171 181 -450 4 -628 -68 -68 -117 -97
-203 -119 -155 -41 -305 3 -436 125 -36 33 -67 60 -70 60 -3 0 -245 -223 -539
-495 -517 -481 -533 -495 -540 -468 -63 248 -110 384 -191 557 l-51 108 34 31
c100 89 830 770 830 774 0 3 -27 34 -60 70 -90 96 -130 191 -130 308 0 298
272 507 565 433z m-3390 -398 c314 -29 574 -101 850 -234 168 -81 277 -147
410 -246 263 -197 478 -437 647 -722 58 -98 148 -276 148 -293 0 -3 -1019 -5
-2265 -5 -1246 0 -2265 4 -2265 9 0 4 30 67 66 140 256 513 681 917 1210 1152
252 112 493 172 814 202 81 8 283 6 385 -3z m3575 -2293 c32 -16 68 -70 76
-114 9 -50 -22 -121 -65 -150 l-34 -23 -3713 2 -3713 3 -30 29 c-36 35 -55 86
-47 128 10 52 38 100 70 119 30 18 128 19 3731 19 2940 0 3705 -3 3725 -13z
m-1350 -488 c0 -35 -47 -257 -75 -353 -83 -287 -225 -565 -418 -821 -138 -182
-393 -417 -597 -551 -405 -265 -853 -397 -1345 -397 -295 0 -505 33 -780 124
-555 184 -1035 573 -1337 1082 -154 260 -278 608 -314 885 l-7 52 2437 0 2436
0 0 -21z m-3579 -2072 c52 -24 146 -63 209 -87 63 -24 118 -46 122 -49 8 -7
-43 -306 -54 -316 -14 -15 -395 160 -467 214 l-21 16 24 70 c38 111 77 195 91
195 1 0 45 -20 96 -43z m2439 -110 c28 -75 51 -146 53 -158 2 -19 -14 -30
-117 -76 -145 -65 -363 -145 -384 -141 -12 2 -22 40 -44 163 -32 190 -32 185
-13 185 23 0 239 84 347 134 51 24 97 40 101 37 4 -4 30 -69 57 -144z m893
-490 l659 -618 67 70 c189 197 478 202 654 11 166 -179 167 -436 2 -609 -106
-111 -211 -148 -393 -136 l-115 7 6 -29 c26 -124 30 -185 18 -250 -32 -177
-158 -314 -326 -359 -207 -56 -422 46 -517 245 -43 90 -51 215 -19 319 20 67
80 162 129 206 12 11 22 24 22 31 0 6 -152 154 -338 328 l-339 317 -6 153
c-11 268 -78 618 -162 855 -19 53 -35 99 -35 101 0 7 49 -38 693 -642z m-3728
560 c-83 -229 -133 -519 -151 -879 l-6 -138 -342 -317 c-187 -174 -342 -320
-344 -325 -2 -4 19 -34 46 -65 99 -116 127 -194 120 -337 -5 -119 -41 -201
-127 -287 -87 -87 -165 -121 -290 -127 -80 -3 -107 -1 -159 17 -167 57 -280
191 -305 363 -8 60 -7 91 6 165 9 50 17 95 17 100 0 4 -44 4 -101 -1 -172 -16
-285 21 -392 126 -280 277 -81 758 313 758 131 0 237 -48 339 -154 l63 -66 92
84 c50 46 350 325 666 619 316 294 576 534 577 533 1 -1 -9 -32 -22 -69z
m1165 -191 c58 -8 153 -18 213 -22 l107 -7 0 -175 0 -175 -112 6 c-119 7 -293
33 -440 68 -77 18 -88 23 -88 42 0 21 35 251 45 293 l5 21 82 -18 c46 -10 130
-25 188 -33z m993 22 c15 -61 49 -309 44 -321 -8 -22 -312 -71 -500 -79 l-57
-3 0 177 0 176 78 7 c103 8 283 33 357 50 33 7 63 13 66 14 4 1 9 -9 12 -21z
m-1858 -264 c116 -59 252 -119 336 -147 14 -5 13 -28 -16 -221 -18 -119 -34
-219 -37 -222 -14 -13 -302 148 -436 244 l-63 45 6 51 c12 97 47 311 52 319 3
4 8 7 12 5 3 -2 69 -35 146 -74z m2659 -64 c17 -77 46 -262 46 -292 0 -9 -27
-33 -63 -56 -125 -79 -444 -228 -470 -219 -8 2 -80 447 -73 453 0 1 76 27 168
57 91 31 210 76 265 100 54 24 101 41 105 38 3 -3 13 -40 22 -81z m-2019 -169
c135 -30 289 -50 424 -58 l121 -6 0 -254 0 -253 -48 0 c-128 0 -363 41 -555
96 -65 19 -120 34 -123 34 -9 0 -3 63 21 236 32 233 33 236 54 229 9 -2 57
-14 106 -24z m1330 -244 c14 -110 24 -205 21 -212 -10 -26 -361 -97 -553 -111
l-93 -7 0 254 0 255 173 17 c94 10 226 27 292 40 l120 22 7 -30 c3 -16 18
-119 33 -228z m-2128 -60 c484 -310 1040 -457 1581 -419 427 30 841 150 1197
347 54 30 100 55 102 55 8 0 1 -143 -12 -247 -26 -193 -69 -341 -145 -493
-162 -322 -424 -527 -795 -623 -182 -47 -235 -52 -515 -52 -232 0 -279 3 -382
23 -294 56 -516 162 -692 331 -216 207 -341 469 -390 811 -17 122 -30 310 -22
310 3 0 36 -19 73 -43z"/>
<path d="M3935 4876 c-215 -50 -376 -181 -464 -378 -41 -91 -55 -161 -54 -268
2 -374 316 -710 663 -710 122 0 178 13 298 71 90 44 115 62 191 137 177 178
246 401 191 616 -61 238 -256 438 -505 516 -89 28 -237 35 -320 16z"/>
<path d="M5995 4874 c-11 -2 -45 -9 -75 -15 -30 -6 -97 -31 -149 -56 -183 -88
-319 -262 -357 -458 -43 -222 28 -469 180 -620 77 -77 188 -139 301 -170 83
-22 269 -31 346 -16 283 56 496 325 516 650 7 111 -14 209 -67 320 -76 157
-249 298 -425 345 -60 16 -232 29 -270 20z"/>
<path d="M4991 3539 c-49 -15 -106 -53 -132 -91 -19 -27 -24 -46 -24 -99 0
-56 4 -71 27 -102 61 -79 206 -117 320 -83 67 19 142 82 158 132 32 97 -29
198 -147 240 -44 15 -152 17 -202 3z"/>
</g>
</svg>
